<svg width="32" height="32" viewBox="0 0 32 32" fill="none" xmlns="http://www.w3.org/2000/svg">
<path d="M3.5 32C3.22386 32 3 31.7761 3 31.5L3 16.5C3 16.2239 3.22386 16 3.5 16L7.5 16C7.77614 16 8 16.2239 8 16.5L8 31.5C8 31.7761 7.77614 32 7.5 32L3.5 32Z" fill="black"/>
<path d="M10.5 32C10.2239 32 10 31.7761 10 31.5L10 8.5C10 8.22386 10.2239 8 10.5 8L14.5 8C14.7761 8 15 8.22386 15 8.5L15 31.5C15 31.7761 14.7761 32 14.5 32L10.5 32Z" fill="black"/>
<path d="M24.5 32C24.2239 32 24 31.7761 24 31.5L24 0.5C24 0.223858 24.2239 -9.78513e-09 24.5 -2.18557e-08L28.5 -1.96701e-07C28.7761 -2.08772e-07 29 0.223857 29 0.5L29 31.5C29 31.7761 28.7761 32 28.5 32L24.5 32Z" fill="black"/>
<path d="M17.5 32C17.2239 32 17 31.7761 17 31.5L17 3.5C17 3.22386 17.2239 3 17.5 3L21.5 3C21.7761 3 22 3.22386 22 3.5L22 31.5C22 31.7761 21.7761 32 21.5 32L17.5 32Z" fill="black"/>
<line x1="32" y1="31" y2="31" stroke="black" stroke-width="2"/>
</svg>
