<svg width="32" height="32" viewBox="0 0 32 32" fill="none" xmlns="http://www.w3.org/2000/svg">
<path d="M6.19225 4.65009L6.72392 7.83849C7.06645 9.89491 8.04308 11.7929 9.51725 13.2669L12.2506 16.0003L11.6056 17.292C11.2439 18.0137 11.3856 18.8854 11.9556 19.4554L14.2023 21.7021C14.5523 22.0521 14.7506 22.5305 14.7506 23.0271V24.8422C14.7506 25.5522 15.1506 26.2005 15.7873 26.5189L16.0423 26.6455C16.7639 27.0072 17.6356 26.8655 18.2056 26.2955L19.4106 25.0905C21.2687 23.232 22.5868 20.9034 23.2239 18.3537C23.3068 18.0232 23.2948 17.676 23.1892 17.352C23.0837 17.028 22.8889 16.7403 22.6273 16.522L20.4106 14.6753C19.9923 14.3253 19.4406 14.177 18.9023 14.267L16.9523 14.592C16.658 14.6409 16.3563 14.619 16.0722 14.528C15.7882 14.437 15.5299 14.2795 15.3189 14.0686L14.8273 13.5769C14.6531 13.4028 14.515 13.1961 14.4208 12.9686C14.3266 12.7411 14.2781 12.4973 14.2781 12.2511C14.2781 12.0048 14.3266 11.761 14.4208 11.5335C14.515 11.306 14.6531 11.0993 14.8273 10.9252L15.0439 10.7052C15.3225 10.4266 15.6818 10.2429 16.0707 10.1801C16.4596 10.1172 16.8585 10.1785 17.2106 10.3552L18.2156 10.8586C18.4688 10.9857 18.7557 11.0299 19.0355 10.9847C19.3152 10.9395 19.5737 10.8074 19.774 10.607C19.9744 10.4066 20.1066 10.1482 20.1517 9.86842C20.1969 9.58865 20.1527 9.30177 20.0256 9.04852L19.7506 8.50017L21.8439 7.10514C22.9295 6.38085 23.8073 5.38584 24.3906 4.21842L24.6339 3.73174M6.19225 4.65009C3.82911 6.69228 2.16237 9.42121 1.42455 12.4561C0.686738 15.4911 0.91466 18.6806 2.07652 21.5798C3.23838 24.479 5.27622 26.9432 7.90573 28.6286C10.5352 30.314 13.6253 31.1366 16.7447 30.9815C19.8641 30.8264 22.8573 29.7015 25.3067 27.7636C27.7561 25.8258 29.5396 23.1716 30.4082 20.1715C31.2768 17.1714 31.1873 13.975 30.1522 11.0282C29.1171 8.08137 27.1879 5.52951 24.6339 3.73174M6.19225 4.65009C8.91476 2.29073 12.398 0.994464 16.0006 1.00002C19.2156 1.00002 22.1939 2.01004 24.6339 3.73174" stroke="black" stroke-width="2" stroke-linecap="round" stroke-linejoin="round"/>
</svg>
