<svg width="32" height="23" viewBox="0 0 32 23" fill="none" xmlns="http://www.w3.org/2000/svg">
<line y1="22" x2="32" y2="22" stroke="black" stroke-width="2"/>
<mask id="path-2-inside-1_30_7" fill="white">
<path d="M5 11.5C5 12.8807 3.88071 14 2.5 14C1.11929 14 0 12.8807 0 11.5C0 10.1193 1.11929 9 2.5 9C3.88071 9 5 10.1193 5 11.5ZM1.55 11.5C1.55 12.0247 1.97533 12.45 2.5 12.45C3.02467 12.45 3.45 12.0247 3.45 11.5C3.45 10.9753 3.02467 10.55 2.5 10.55C1.97533 10.55 1.55 10.9753 1.55 11.5Z"/>
</mask>
<path d="M5 11.5C5 12.8807 3.88071 14 2.5 14C1.11929 14 0 12.8807 0 11.5C0 10.1193 1.11929 9 2.5 9C3.88071 9 5 10.1193 5 11.5ZM1.55 11.5C1.55 12.0247 1.97533 12.45 2.5 12.45C3.02467 12.45 3.45 12.0247 3.45 11.5C3.45 10.9753 3.02467 10.55 2.5 10.55C1.97533 10.55 1.55 10.9753 1.55 11.5Z" stroke="black" stroke-width="4" mask="url(#path-2-inside-1_30_7)"/>
<mask id="path-3-inside-2_30_7" fill="white">
<path d="M13 14.0154C13 15.3961 11.8807 16.5154 10.5 16.5154C9.11929 16.5154 8 15.3961 8 14.0154C8 12.6347 9.11929 11.5154 10.5 11.5154C11.8807 11.5154 13 12.6347 13 14.0154ZM9.55 14.0154C9.55 14.5401 9.97533 14.9654 10.5 14.9654C11.0247 14.9654 11.45 14.5401 11.45 14.0154C11.45 13.4907 11.0247 13.0654 10.5 13.0654C9.97533 13.0654 9.55 13.4907 9.55 14.0154Z"/>
</mask>
<path d="M13 14.0154C13 15.3961 11.8807 16.5154 10.5 16.5154C9.11929 16.5154 8 15.3961 8 14.0154C8 12.6347 9.11929 11.5154 10.5 11.5154C11.8807 11.5154 13 12.6347 13 14.0154ZM9.55 14.0154C9.55 14.5401 9.97533 14.9654 10.5 14.9654C11.0247 14.9654 11.45 14.5401 11.45 14.0154C11.45 13.4907 11.0247 13.0654 10.5 13.0654C9.97533 13.0654 9.55 13.4907 9.55 14.0154Z" stroke="black" stroke-width="4" mask="url(#path-3-inside-2_30_7)"/>
<mask id="path-4-inside-3_30_7" fill="white">
<path d="M19 6.01538C19 7.39609 17.8807 8.51538 16.5 8.51538C15.1193 8.51538 14 7.39609 14 6.01538C14 4.63467 15.1193 3.51538 16.5 3.51538C17.8807 3.51538 19 4.63467 19 6.01538ZM15.55 6.01538C15.55 6.54005 15.9753 6.96538 16.5 6.96538C17.0247 6.96538 17.45 6.54005 17.45 6.01538C17.45 5.49071 17.0247 5.06538 16.5 5.06538C15.9753 5.06538 15.55 5.49071 15.55 6.01538Z"/>
</mask>
<path d="M19 6.01538C19 7.39609 17.8807 8.51538 16.5 8.51538C15.1193 8.51538 14 7.39609 14 6.01538C14 4.63467 15.1193 3.51538 16.5 3.51538C17.8807 3.51538 19 4.63467 19 6.01538ZM15.55 6.01538C15.55 6.54005 15.9753 6.96538 16.5 6.96538C17.0247 6.96538 17.45 6.54005 17.45 6.01538C17.45 5.49071 17.0247 5.06538 16.5 5.06538C15.9753 5.06538 15.55 5.49071 15.55 6.01538Z" stroke="black" stroke-width="4" mask="url(#path-4-inside-3_30_7)"/>
<mask id="path-5-inside-4_30_7" fill="white">
<path d="M26 9.01538C26 10.3961 24.8807 11.5154 23.5 11.5154C22.1193 11.5154 21 10.3961 21 9.01538C21 7.63467 22.1193 6.51538 23.5 6.51538C24.8807 6.51538 26 7.63467 26 9.01538ZM22.55 9.01538C22.55 9.54005 22.9753 9.96538 23.5 9.96538C24.0247 9.96538 24.45 9.54005 24.45 9.01538C24.45 8.49071 24.0247 8.06538 23.5 8.06538C22.9753 8.06538 22.55 8.49071 22.55 9.01538Z"/>
</mask>
<path d="M26 9.01538C26 10.3961 24.8807 11.5154 23.5 11.5154C22.1193 11.5154 21 10.3961 21 9.01538C21 7.63467 22.1193 6.51538 23.5 6.51538C24.8807 6.51538 26 7.63467 26 9.01538ZM22.55 9.01538C22.55 9.54005 22.9753 9.96538 23.5 9.96538C24.0247 9.96538 24.45 9.54005 24.45 9.01538C24.45 8.49071 24.0247 8.06538 23.5 8.06538C22.9753 8.06538 22.55 8.49071 22.55 9.01538Z" stroke="black" stroke-width="4" mask="url(#path-5-inside-4_30_7)"/>
<mask id="path-6-inside-5_30_7" fill="white">
<path d="M32 2.5C32 3.88071 30.8807 5 29.5 5C28.1193 5 27 3.88071 27 2.5C27 1.11929 28.1193 0 29.5 0C30.8807 0 32 1.11929 32 2.5ZM28.55 2.5C28.55 3.02467 28.9753 3.45 29.5 3.45C30.0247 3.45 30.45 3.02467 30.45 2.5C30.45 1.97533 30.0247 1.55 29.5 1.55C28.9753 1.55 28.55 1.97533 28.55 2.5Z"/>
</mask>
<path d="M32 2.5C32 3.88071 30.8807 5 29.5 5C28.1193 5 27 3.88071 27 2.5C27 1.11929 28.1193 0 29.5 0C30.8807 0 32 1.11929 32 2.5ZM28.55 2.5C28.55 3.02467 28.9753 3.45 29.5 3.45C30.0247 3.45 30.45 3.02467 30.45 2.5C30.45 1.97533 30.0247 1.55 29.5 1.55C28.9753 1.55 28.55 1.97533 28.55 2.5Z" stroke="black" stroke-width="4" mask="url(#path-6-inside-5_30_7)"/>
<path d="M4 12L8.5 13.5" stroke="black" stroke-width="2"/>
<path d="M11.5 13L16 7" stroke="black" stroke-width="2"/>
<path d="M18 6.5L22 8.5" stroke="black" stroke-width="2"/>
<path d="M29 3.5L25 8" stroke="black" stroke-width="2"/>
</svg>
