<svg width="32" height="32" viewBox="0 0 32 32" fill="none" xmlns="http://www.w3.org/2000/svg">
<path d="M6.875 20.9922C8.64197 24.2132 12.065 26.3965 15.998 26.3965C17.026 26.3965 18.0182 26.2446 18.9561 25.9668L21.1943 31.1318C19.565 31.6912 17.8172 31.9961 15.998 31.9961C9.70627 31.9961 4.26321 28.3639 1.65039 23.082L6.875 20.9922ZM17.7451 0.0957031C25.7587 0.966105 31.9961 7.75296 31.9961 15.998C31.9961 22.1274 28.5485 27.4502 23.4873 30.1367L21.249 24.9717C24.3278 23.1662 26.3965 19.825 26.3965 15.998C26.3965 10.7891 22.5669 6.4742 17.5693 5.7168L17.7451 0.0957031ZM7.28906 10.3154C6.22103 11.9489 5.59961 13.9007 5.59961 15.998C5.59961 16.9222 5.72102 17.8179 5.94727 18.6709L0.720703 20.7607C0.252218 19.2564 0 17.6566 0 15.998C3.65578e-06 12.5288 1.10422 9.31738 2.98047 6.69629L7.28906 10.3154ZM15.0713 5.64258C12.6934 5.85264 10.5464 6.86172 8.89941 8.40137L4.58984 4.78223C7.3286 1.99679 11.0797 0.210163 15.2471 0.0175781L15.0713 5.64258Z" fill="black"/>
</svg>
